<svg width="40" height="50" viewBox="0 0 40 50" fill="none" xmlns="http://www.w3.org/2000/svg">
<path fill-rule="evenodd" clip-rule="evenodd" d="M33.2 1.77376L33.6222 2.03376L38.0222 4.96709C38.5788 5.33847 39.0443 5.83072 39.384 6.40712C39.7238 6.98352 39.929 7.62919 39.9844 8.29598L40 8.66487V36.5293C39.9999 37.5894 39.621 38.6145 38.9315 39.4197C38.242 40.2249 37.2874 40.7572 36.24 40.9204L35.8956 40.9604L10.2756 42.9315C9.5936 42.984 8.90875 42.8783 8.27432 42.6227C7.63989 42.3672 7.073 41.9687 6.61778 41.4582L6.38 41.1671L1.33333 34.4382C0.566359 33.4153 0.109696 32.1934 0.0177775 30.9182L0 30.4382V7.31153C7.51036e-05 6.25147 0.379045 5.22634 1.06852 4.42113C1.758 3.61592 2.71258 3.08367 3.76 2.92042L4.10444 2.88042L29.4111 0.933756C30.7287 0.832267 32.0467 1.12464 33.1978 1.77376H33.2ZM35.5556 12.0982L11.1111 13.9782V38.4093L35.5556 36.5293V12.0982ZM28.8889 15.2538C29.4783 15.2538 30.0435 15.4879 30.4602 15.9046C30.877 16.3214 31.1111 16.8866 31.1111 17.476V33.0315C31.1111 33.6209 30.877 34.1861 30.4602 34.6029C30.0435 35.0196 29.4783 35.2538 28.8889 35.2538H27.7778C27.3981 35.2539 27.0248 35.1567 26.6933 34.9715C26.3619 34.7864 26.0834 34.5193 25.8844 34.196L20 24.6315V34.1426C20 34.732 19.7659 35.2972 19.3491 35.714C18.9324 36.1307 18.3671 36.3649 17.7778 36.3649C17.1884 36.3649 16.6232 36.1307 16.2064 35.714C15.7897 35.2972 15.5556 34.732 15.5556 34.1426V18.5871C15.5556 17.9977 15.7897 17.4325 16.2064 17.0157C16.6232 16.599 17.1884 16.3649 17.7778 16.3649H18.8889C19.2686 16.3648 19.6419 16.4619 19.9734 16.6471C20.3048 16.8323 20.5833 17.0993 20.7822 17.4226L26.6667 26.9849V17.476C26.6667 16.8866 26.9008 16.3214 27.3175 15.9046C27.7343 15.4879 28.2995 15.2538 28.8889 15.2538ZM29.7511 5.36487L7.21111 7.0982L9.73778 9.62487L34.1778 7.74709L31.1556 5.73153C30.7416 5.45555 30.2471 5.32644 29.7511 5.36487Z" fill="black"/>
</svg>
